<svg xmlns="http://www.w3.org/2000/svg" viewBox="0 0 24 24" fill="#EE0000">
  <path d="M10.617 11.473l4.686 3.695-3.102-7.662-1.584 3.967zM12 0C5.371 0 0 5.371 0 12s5.371 12 12 12 12-5.371 12-12S18.629 0 12 0zm5.797 17.305c-.011.471-.403.842-.875.83-.236-.006-.464-.096-.633-.25l-4.863-3.834c-.168-.132-.168-.132-.337 0l-4.863 3.834c-.169.154-.397.244-.633.25-.472.012-.864-.359-.875-.83-.006-.236.096-.464.25-.633l3.834-4.863c.132-.168.132-.168 0-.337L5.968 6.609c-.154-.169-.256-.397-.25-.633.011-.471.403-.842.875-.83.236.006.464.096.633.25l4.863 3.834c.168.132.168.132.337 0l4.863-3.834c.169-.154.397-.244.633-.25.472-.012.864.359.875.83.006.236-.096.464-.25.633l-3.834 4.863c-.132.168-.132.168 0 .337l3.834 4.863c.154.169.256.397.25.633z"/>
</svg>