<svg xmlns="http://www.w3.org/2000/svg" viewBox="0 0 24 24" fill="#FF9900">
  <path d="M6.763 10.036c0 .296.032.535.088.71.064.176.144.368.256.576.04.063.056.127.056.183 0 .08-.048.16-.152.24l-.503.335c-.072.048-.144.072-.2.072-.08 0-.16-.04-.239-.112a2.417 2.417 0 01-.287-.375 6.18 6.18 0 01-.248-.471c-.622.734-1.405 1.101-2.347 1.101-.67 0-1.205-.191-1.596-.574-.391-.383-.591-.894-.591-1.533 0-.678.239-1.23.726-1.644.487-.415 1.133-.623 1.955-.623.27 0 .551.024.846.064.296.04.6.104.918.176v-.583c0-.607-.127-1.030-.375-1.277-.255-.248-.686-.367-1.3-.367-.28 0-.568.032-.863.104-.296.064-.583.16-.863.28-.128.055-.224.08-.279.08-.104 0-.16-.08-.16-.231v-.367c0-.12.016-.208.056-.256.04-.048.112-.096.2-.144.28-.144.615-.264 1.005-.36.391-.095.807-.144 1.246-.144.95 0 1.644.216 2.091.647.439.432.663 1.085.663 1.963v2.586zm-3.24 1.214c.263 0 .535-.048.822-.144.287-.096.543-.271.758-.503.128-.144.224-.304.272-.48.048-.175.08-.383.08-.615v-.295a6.637 6.637 0 00-.735-.136 6.188 6.188 0 00-.751-.048c-.535 0-.926.104-1.19.32-.263.215-.391.518-.391.917 0 .375.095.655.279.846.191.2.47.296.856.296zm6.44 1.214c-.111 0-.191-.024-.231-.064-.048-.048-.088-.144-.127-.288L7.047 2.935c-.04-.144-.056-.24-.056-.279 0-.112.056-.175.168-.175h.686c.111 0 .191.024.231.064.048.048.08.144.127.288l2.244 8.845 2.084-8.845c.04-.144.08-.24.127-.288.048-.048.127-.064.231-.064h.559c.111 0 .191.024.231.064.048.048.088.144.127.288l2.108 8.845 2.316-8.845c.048-.144.088-.24.127-.288.048-.048.127-.064.231-.064h.647c.111 0 .175.056.175.175 0 .048-.008.096-.024.144-.016.048-.04.112-.08.2L14.325 12.1c-.04.144-.08.24-.127.288-.048.048-.127.064-.231.064h-.6c-.111 0-.191-.024-.231-.064-.048-.048-.088-.144-.127-.288l-2.084-8.646-2.068 8.646c-.04.144-.08.24-.127.288-.048.048-.127.064-.231.064h-.6zm9.684.279c-.391 0-.783-.048-1.174-.144-.391-.096-.695-.2-.918-.32-.128-.071-.215-.151-.247-.224-.032-.072-.048-.151-.048-.231v-.383c0-.151.056-.231.16-.231.048 0 .096.008.144.024.048.016.12.048.2.08.279.127.575.224.886.279.32.056.631.08.942.08.5 0 .886-.088 1.158-.264.279-.176.415-.423.415-.734 0-.215-.08-.399-.24-.559-.16-.151-.455-.287-.886-.415l-1.27-.399c-.647-.2-1.117-.495-1.422-.886-.296-.383-.447-.83-.447-1.334 0-.383.08-.718.248-1.005.167-.287.391-.535.67-.742.28-.208.607-.368.99-.48.383-.112.798-.168 1.246-.168.175 0 .351.008.535.032.184.024.36.056.535.088.167.04.328.08.479.127.151.048.279.096.375.144.096.048.167.104.207.16.048.056.072.127.072.2v.367c0 .151-.056.231-.16.231-.064 0-.167-.032-.296-.088-.455-.2-.967-.296-1.534-.296-.455 0-.815.072-1.062.224-.248.151-.375.375-.375.67 0 .215.088.399.255.551.167.151.471.295.918.423l1.246.399c.639.2 1.102.487 1.381.862.287.375.423.806.423 1.294 0 .391-.08.734-.24 1.037-.16.296-.384.551-.67.758-.287.2-.63.36-1.022.463-.4.111-.830.167-1.294.167z"/>
</svg>