<svg xmlns="http://www.w3.org/2000/svg" viewBox="0 0 24 24" fill="#7952B3">
  <path d="M11.77 11.24H9.956V8.202h2.152c1.17 0 1.834.522 1.834 1.466 0 1.008-.773 1.572-2.174 1.572z"/>
  <path d="M21.356 0H2.644C1.184 0 0 1.184 0 2.644v18.712C0 22.816 1.184 24 2.644 24h18.712C22.816 24 24 22.816 24 21.356V2.644C24 1.184 22.816 0 21.356 0zM11.99 15.434c-1.43 0-2.31-.906-2.31-2.31V8.202H7.04V6.248h2.64V4.466c0-1.404.88-2.31 2.31-2.31h2.64v1.954h-2.64c-.44 0-.66.22-.66.66v1.478h3.3v1.954h-3.3v4.922c0 .44.22.66.66.66h2.64v1.954h-2.64z"/>
</svg>