<svg xmlns="http://www.w3.org/2000/svg" viewBox="0 0 24 24" fill="#F38020">
  <path d="M8.27 15.26h9.08c.2 0 .39-.08.53-.22.14-.14.22-.33.22-.53 0-.2-.08-.39-.22-.53-.14-.14-.33-.22-.53-.22H8.27c-.2 0-.39.08-.53.22-.14.14-.22.33-.22.53 0 .2.08.39.22.53.14.14.33.22.53.22zm12.46-2.64c-.08-.42-.3-.8-.62-1.08-.32-.28-.73-.44-1.16-.44H5.05c-.43 0-.84.16-1.16.44-.32.28-.54.66-.62 1.08-.08.42-.02.85.18 1.22.2.37.52.66.9.82.38.16.8.18 1.19.06h11.32c.39.12.81.1 1.19-.06.38-.16.7-.45.9-.82.2-.37.26-.8.18-1.22z"/>
</svg>