<svg xmlns="http://www.w3.org/2000/svg" viewBox="0 0 24 24" fill="#2478CC">
  <path d="M21.875 12c0 5.454-4.421 9.875-9.875 9.875S2.125 17.454 2.125 12 6.546 2.125 12 2.125 21.875 6.546 21.875 12zM12 0C5.373 0 0 5.373 0 12s5.373 12 12 12 12-5.373 12-12S18.627 0 12 0zm0 3.5c4.687 0 8.5 3.813 8.5 8.5s-3.813 8.5-8.5 8.5S3.5 16.687 3.5 12 7.313 3.5 12 3.5zm0 2c-3.584 0-6.5 2.916-6.5 6.5s2.916 6.5 6.5 6.5 6.5-2.916 6.5-6.5S15.584 5.5 12 5.5zm0 2c2.481 0 4.5 2.019 4.5 4.5s-2.019 4.5-4.5 4.5S7.5 14.481 7.5 12 9.519 7.5 12 7.5z"/>
</svg>