<svg xmlns="http://www.w3.org/2000/svg" viewBox="0 0 24 24" fill="#0678BE">
  <path d="M15.78 5.113C14.09 3.425 12.48 1.815 11.998 0c-.48 1.815-2.09 3.425-3.778 5.113C6.54 6.793 5.062 8.271 3.384 9.959 1.706 11.647.228 13.125.228 15.587c0 6.518 5.272 11.79 11.79 11.79s11.79-5.272 11.79-11.79c0-2.462-1.478-3.94-3.156-5.628-1.678-1.688-3.156-3.166-4.844-4.854l-.008.008zM6.9 18.562c-1.092 0-1.978-.886-1.978-1.978s.886-1.978 1.978-1.978 1.978.886 1.978 1.978-.886 1.978-1.978 1.978zm4.455-1.483c-1.365 0-2.472-1.107-2.472-2.472s1.107-2.472 2.472-2.472 2.472 1.107 2.472 2.472-1.107 2.472-2.472 2.472zm6.433-2.472c-1.638 0-2.965-1.327-2.965-2.965s1.327-2.965 2.965-2.965 2.965 1.327 2.965 2.965-1.327 2.965-2.965 2.965z"/>
</svg>