<svg xmlns="http://www.w3.org/2000/svg" viewBox="0 0 24 24" fill="#005571">
  <path d="M13.394 5.294c.161-.161.161-.423 0-.584s-.423-.161-.584 0L8.606 8.914c-.161.161-.161.423 0 .584l4.204 4.204c.161.161.423.161.584 0s.161-.423 0-.584L9.484 9.206l3.91-3.912zm-2.788 0c.161-.161.161-.423 0-.584s-.423-.161-.584 0L5.818 8.914c-.161.161-.161.423 0 .584l4.204 4.204c.161.161.423.161.584 0s.161-.423 0-.584L6.696 9.206l3.91-3.912z"/>
  <circle cx="12" cy="12" r="10" fill="none" stroke="#005571" stroke-width="2"/>
</svg>