<svg xmlns="http://www.w3.org/2000/svg" viewBox="0 0 24 24" fill="#4285F4">
  <path d="M12.19 2.38a9.344 9.344 0 0 1 6.427 2.606 9.344 9.344 0 0 1 2.606 6.427v.38h-2.85v-.38a6.494 6.494 0 0 0-1.811-4.47 6.494 6.494 0 0 0-4.47-1.811 6.494 6.494 0 0 0-4.47 1.811 6.494 6.494 0 0 0-1.811 4.47v.38H2.96v-.38a9.344 9.344 0 0 1 2.606-6.427A9.344 9.344 0 0 1 12.19 2.38zm0 4.75a4.744 4.744 0 0 1 3.357 1.387 4.744 4.744 0 0 1 1.387 3.357v.38h-2.85v-.38a1.894 1.894 0 0 0-.554-1.343 1.894 1.894 0 0 0-1.343-.554 1.894 1.894 0 0 0-1.343.554 1.894 1.894 0 0 0-.554 1.343v.38H7.44v-.38a4.744 4.744 0 0 1 1.387-3.357A4.744 4.744 0 0 1 12.19 7.13zm0 4.75a.95.95 0 0 1 .673.277.95.95 0 0 1 .277.673v.38h-1.9v-.38a.95.95 0 0 1 .277-.673.95.95 0 0 1 .673-.277zm-9.23 4.37h18.46v2.85H2.96v-2.85z"/>
</svg>