<svg xmlns="http://www.w3.org/2000/svg" viewBox="0 0 24 24" fill="#D33833">
  <path d="M11.998 0C5.366 0 0 5.367 0 12s5.366 12 11.998 12C18.629 24 24 18.633 24 12S18.629 0 11.998 0zM8.73 4.444c.901-.009 1.626.73 1.619 1.649-.007.919-.74 1.658-1.64 1.649-.9.009-1.626-.73-1.619-1.649.007-.919.74-1.658 1.64-1.649zm7.311 13.445c-.901.009-1.626-.73-1.619-1.649.007-.919.74-1.658 1.64-1.649.9-.009 1.626.73 1.619 1.649-.007.919-.74 1.658-1.64 1.649zm-3.07-13.445c.901-.009 1.626.73 1.619 1.649-.007.919-.74 1.658-1.64 1.649-.9.009-1.626-.73-1.619-1.649.007-.919.74-1.658 1.64-1.649zm3.07 0c.901-.009 1.626.73 1.619 1.649-.007.919-.74 1.658-1.64 1.649-.9.009-1.626-.73-1.619-1.649.007-.919.74-1.658 1.64-1.649z"/>
</svg>