<svg xmlns="http://www.w3.org/2000/svg" viewBox="0 0 24 24" fill="#326CE5">
  <path d="M10.204 14.35l.007.01-.999 2.413a5.171 5.171 0 002.075-1.271l-1.083-1.152zm2.824-1.077l.01-.006 2.413.999a5.171 5.171 0 00-1.271-2.075l-1.152 1.082zm1.077-2.824l.006-.01.999-2.413a5.171 5.171 0 00-2.075 1.271l1.07 1.152zm-2.824 1.077l-.01.006-2.413-.999a5.171 5.171 0 001.271 2.075l1.152-1.082zm-1.077 2.824l-.006.01-.999 2.413a5.171 5.171 0 002.075-1.271l-1.07-1.152zm2.824-1.077l.01.006 2.413.999a5.171 5.171 0 00-1.271-2.075l-1.152 1.07zm1.077-2.824l.006.01.999 2.413a5.171 5.171 0 00-2.075-1.271l1.07 1.152zm-2.824 1.077l-.01-.006-2.413-.999a5.171 5.171 0 001.271 2.075l1.152-1.07z"/>
</svg>