<svg xmlns="http://www.w3.org/2000/svg" viewBox="0 0 24 24" fill="#FF2D20">
  <path d="M23.642 5.43a.364.364 0 01.014.1v5.149c0 .135-.073.26-.189.326l-4.323 2.49v4.934a.378.378 0 01-.188.326L9.93 23.949a.316.316 0 01-.066.017c-.008.002-.016.002-.024.002-.008 0-.017 0-.024-.002a.316.316 0 01-.066-.017L.726 18.755a.378.378 0 01-.188-.326V9.584c0-.005.003-.009.003-.014v-.002c0-.024.008-.047.014-.07.003-.016.009-.031.014-.047.005-.018.014-.034.023-.051.005-.013.015-.025.023-.037.01-.016.019-.032.03-.047.007-.011.018-.02.026-.032.014-.017.027-.035.043-.05.010-.01.022-.017.033-.027.014-.013.031-.024.047-.035.011-.007.020-.017.033-.024L9.93.05a.378.378 0 01.378 0l9.062 5.194c.013.007.022.017.033.024.016.011.033.022.047.035.011.01.023.017.033.027.016.015.029.033.043.05.008.012.019.021.026.032.011.015.02.031.03.047.008.012.018.024.023.037.009.017.018.033.023.051.005.016.011.031.014.047.006.023.014.046.014.07v.002c0 .005.003.009.003.014v5.149c0 .135-.073.26-.189.326l-4.323 2.49v4.934a.378.378 0 01-.188.326L9.93 23.949a.316.316 0 01-.066.017c-.008.002-.016.002-.024.002-.008 0-.017 0-.024-.002a.316.316 0 01-.066-.017L.726 18.755a.378.378 0 01-.188-.326V9.584c0-.005.003-.009.003-.014v-.002c0-.024.008-.047.014-.07.003-.016.009-.031.014-.047.005-.018.014-.034.023-.051.005-.013.015-.025.023-.037.01-.016.019-.032.03-.047.007-.011.018-.02.026-.032.014-.017.027-.035.043-.05.010-.01.022-.017.033-.027.014-.013.031-.024.047-.035.011-.007.020-.017.033-.024L9.93.05a.378.378 0 01.378 0l9.062 5.194c.013.007.022.017.033.024.016.011.033.022.047.035.011.01.023.017.033.027.016.015.029.033.043.05.008.012.019.021.026.032.011.015.02.031.03.047.008.012.018.024.023.037.009.017.018.033.023.051.005.016.011.031.014.047.006.023.014.046.014.07v.002c0 .005.003.009.003.014z"/>
</svg>