<svg xmlns="http://www.w3.org/2000/svg" viewBox="0 0 24 24" fill="#00C7B7">
  <path d="M16.934 8.519a1.044 1.044 0 01.303-.23l2.349-1.045-2.192-2.171-.648.646a.914.914 0 01-.618.26H14.25L16.934 8.52zm-4.44-2.56h1.594a.914.914 0 01.618.26l.648-.646L12.804.402 10.25 3.017l2.244 2.942zm7.089 1.581l2.52-1.122c.649-.289.649-1.229 0-1.518L19.25.402c-.43-.191-.932-.191-1.362 0L15.336 1.78l2.247 2.76zm-10.648.06L6.69 4.84 4.25.402c-.43-.191-.932-.191-1.362 0L.402 2.9c-.649.289-.649 1.229 0 1.518l2.52 1.122 2.247-2.76zm-.354 2.11l-.002.002-.002-.002h.004zm8.57-.004c-.43-.191-.932-.191-1.362 0l-2.52 1.122 2.247 2.76 2.52-1.122c.649-.289.649-1.229 0-1.518l-2.885-1.242zm-11.096 0L3.17 10.948c-.649.289-.649 1.229 0 1.518l2.52 1.122 2.247-2.76-2.52-1.122c-.43-.191-.932-.191-1.362 0zm5.548 2.48l2.244 2.942 2.554-2.615H14.25a.914.914 0 01-.618.26l-.648-.646a1.044 1.044 0 01-.303-.23L10.25 12.226zm6.684-.46l-2.192 2.171 2.349 1.045a1.044 1.044 0 01.303.23l2.683-3.446h-1.878a.914.914 0 01-.618-.26l-.647.26zm-13.368 0l-.647-.26a.914.914 0 01-.618.26H1.25l2.683 3.446a1.044 1.044 0 01.303-.23l2.349-1.045-2.192-2.171zm11.096 4.08c.43.191.932.191 1.362 0l2.885-1.242c.649-.289.649-1.229 0-1.518l-2.52-1.122-2.247 2.76 2.52 1.122zm-8.824 0l2.52-1.122-2.247-2.76-2.52 1.122c-.649.289-.649 1.229 0 1.518l2.885 1.242c.43.191.932.191 1.362 0zm4.412 2.48l2.55-2.615-2.244-2.942-2.683 3.446a1.044 1.044 0 01.303.23l.648.646a.914.914 0 01.618.26h1.878l-.07-.025zm-1.362 0a.914.914 0 01-.618-.26l-.648.646 2.192 2.171 2.804-1.557-2.554-2.615H12.25l-.07.615z"/>
</svg>