<svg xmlns="http://www.w3.org/2000/svg" viewBox="0 0 24 24" fill="#339933">
  <path d="M12 1.85c-.27 0-.55.07-.78.2l-7.44 4.3c-.48.28-.78.8-.78 1.36v8.58c0 .56.3 1.08.78 1.36l7.44 4.3c.46.26 1.04.26 1.5 0l7.44-4.3c.48-.28.78-.8.78-1.36V7.71c0-.56-.3-1.08-.78-1.36l-7.44-4.3c-.23-.13-.51-.2-.78-.2zm-.2 3.13c.2 0 .4.05.58.15l5.47 3.16c.36.21.58.6.58 1.02v6.32c0 .42-.22.81-.58 1.02l-5.47 3.16c-.36.21-.8.21-1.16 0l-5.47-3.16c-.36-.21-.58-.6-.58-1.02V9.31c0-.42.22-.81.58-1.02l5.47-3.16c.18-.1.38-.15.58-.15z"/>
</svg>