<svg xmlns="http://www.w3.org/2000/svg" viewBox="0 0 24 24" fill="#F80000">
  <path d="M12 0C5.373 0 0 5.373 0 12s5.373 12 12 12 12-5.373 12-12S18.627 0 12 0zm0 2c5.523 0 10 4.477 10 10s-4.477 10-10 10S2 17.523 2 12 6.477 2 12 2zm0 3c-3.866 0-7 3.134-7 7s3.134 7 7 7 7-3.134 7-7-3.134-7-7-7zm0 2c2.761 0 5 2.239 5 5s-2.239 5-5 5-5-2.239-5-5 2.239-5 5-5z"/>
  <text x="12" y="16" text-anchor="middle" font-family="Arial, sans-serif" font-size="3" font-weight="bold" fill="#F80000">ORACLE</text>
</svg>