<svg xmlns="http://www.w3.org/2000/svg" viewBox="0 0 24 24" fill="#777BB4">
  <path d="M7.01 10.207h-.944l-.515 2.648h.838c.556 0 .982-.122 1.292-.391.313-.27.503-.644.572-1.115.05-.33-.044-.611-.292-.92-.248-.308-.646-.459-1.191-.459l-.76.237zm12.39 0h-.944l-.515 2.648h.838c.556 0 .982-.122 1.292-.391.313-.27.503-.644.572-1.115.05-.33-.044-.611-.292-.92-.248-.308-.646-.459-1.191-.459l-.76.237zM24 12c0 6.627-5.373 12-12 12S0 18.627 0 12 5.373 0 12 0s12 5.373 12 12zM8.5 8.287c.731 0 1.307.365 1.628.911.321.545.398 1.154.231 1.826-.283 1.227-1.047 1.976-2.26 1.976h-.906l-.105.534H5.924l.957-4.932H8.5v-.315zm7.5 0c.731 0 1.307.365 1.628.911.321.545.398 1.154.231 1.826-.283 1.227-1.047 1.976-2.26 1.976h-.906l-.105.534h-1.164l.957-4.932H16v-.315zM9.5 10.207c.42 0 .749.1.987.3.238.2.343.4.315.6-.028.2-.143.4-.345.6s-.49.3-.84.3h-.647l.53-1.8zm7.5 0c.42 0 .749.1.987.3.238.2.343.4.315.6-.028.2-.143.4-.345.6s-.49.3-.84.3h-.647l.53-1.8z"/>
</svg>