<svg xmlns="http://www.w3.org/2000/svg" viewBox="0 0 24 24" fill="#336791">
  <path d="M23.111 5.441c-.777-1.185-2.177-1.79-4.162-1.79-1.185 0-2.177.296-2.962.888-.777.592-1.185 1.333-1.185 2.222 0 .592.148 1.111.444 1.555.296.444.74.777 1.333.999.592.222 1.333.333 2.222.333.888 0 1.63-.111 2.222-.333.592-.222 1.037-.555 1.333-.999.296-.444.444-.963.444-1.555 0-.889-.408-1.63-1.185-2.222-.785-.592-1.777-.888-2.962-.888-1.985 0-3.385.605-4.162 1.79-.777 1.185-1.185 2.814-1.185 4.888 0 2.074.408 3.703 1.185 4.888.777 1.185 2.177 1.79 4.162 1.79 1.185 0 2.177-.296 2.962-.888.777-.592 1.185-1.333 1.185-2.222 0-.592-.148-1.111-.444-1.555-.296-.444-.74-.777-1.333-.999-.592-.222-1.333-.333-2.222-.333-.888 0-1.63.111-2.222.333-.592.222-1.037.555-1.333.999-.296.444-.444.963-.444 1.555 0 .889.408 1.63 1.185 2.222.785.592 1.777.888 2.962.888 1.985 0 3.385-.605 4.162-1.79.777-1.185 1.185-2.814 1.185-4.888 0-2.074-.408-3.703-1.185-4.888z"/>
</svg>