<svg xmlns="http://www.w3.org/2000/svg" viewBox="0 0 24 24" fill="#CC6699">
  <path d="M12 0C5.373 0 0 5.373 0 12s5.373 12 12 12 12-5.373 12-12S18.627 0 12 0zM9.615 15.055c.157.359.146.694-.009 1.021l-.047.099c-.094.181-.221.35-.363.504-.57.619-1.365.853-1.709.656-.37-.212-.185-1.108.487-1.818.757-.798 1.48-1.048 1.48-1.048v-.001s.151-.083.161.587zm7.984-10.583c-.226 2.237-1.674 5.135-4.571 6.723-1.77 1.033-3.199 1.048-3.809.64-.697-.467-.506-1.201.325-1.96.831-.759 2.171-1.275 2.171-1.275s-.272-.151-.272.272c0 .423-.543.815-.543.815s.815-.543 1.359-.272c.543.272.815.815.815.815s-.272-.543.272-.815c.543-.272 1.086.272 1.086.272s-.815-.543-.272-1.086c.543-.543 1.359-.272 1.359-.272s-1.086-.543-.543-1.359c.543-.815 1.63-.543 1.63-.543s-1.359-.815-.815-1.902c.543-1.086 1.902-.815 1.902-.815s-1.63-1.086-1.086-2.444c.543-1.359 2.444-1.086 2.444-1.086s-2.444-1.359-1.902-3.26c.543-1.902 3.26-1.359 3.26-1.359s-3.26-1.902-2.717-4.347c.272-1.223 1.63-1.902 3.26-1.359 1.63.543 2.717 2.173 2.717 4.347 0 2.173-1.087 3.803-2.717 4.347z"/>
</svg>