<svg xmlns="http://www.w3.org/2000/svg" viewBox="0 0 24 24" fill="#7AB55C">
  <path d="M15.337 2.368c-.332-.024-.672.024-.984.144-.024 0-.048.024-.072.024-.024-.024-.048-.048-.096-.048-.456-.336-1.032-.456-1.608-.336-1.728.36-3.456 2.016-4.368 4.368-.576 1.488-.888 2.784-.888 3.744 0 .048 0 .096.024.144-1.176.36-2.016.624-2.064.648-.984.312-1.008.336-1.128 1.272-.096.72-2.64 20.4-2.64 20.4L18.409 24l5.591-1.176s-2.544-20.4-2.64-20.4c-.12-.936-.144-.96-1.128-1.272-.048-.024-.888-.288-2.064-.648.024-.048.024-.096.024-.144 0-.96-.312-2.256-.888-3.744-.912-2.352-2.64-4.008-4.368-4.368-.576-.12-1.152 0-1.608.336-.048 0-.072.024-.096.048-.024 0-.048-.024-.072-.024-.312-.12-.652-.168-.984-.144zm-.168 1.176c.168 0 .312.024.456.072-.024.048-.048.096-.072.168-.168.456-.384 1.056-.576 1.704-.552-.168-1.128-.312-1.704-.384.312-.768.72-1.32 1.176-1.56.24-.096.48-.144.72-.144zm1.176.072c.24 0 .48.048.72.144.456.24.864.792 1.176 1.56-.576.072-1.152.216-1.704.384-.192-.648-.408-1.248-.576-1.704-.024-.072-.048-.12-.072-.168.144-.048.288-.072.456-.072zm.72 2.256c.576.168 1.128.384 1.632.648-.048.336-.12.72-.216 1.152-.48-.144-.984-.264-1.512-.336.048-.48.072-.96.096-1.464zm-2.616 0c.024.504.048.984.096 1.464-.528.072-1.032.192-1.512.336-.096-.432-.168-.816-.216-1.152.504-.264 1.056-.48 1.632-.648zm1.308 2.016c.528.072 1.032.192 1.512.336l-.888 11.016c-.024.288-.168.528-.408.672-.24.144-.528.168-.792.072l-6.24-2.256c-.288-.096-.504-.312-.6-.6-.096-.288-.048-.6.144-.84l5.272-8.4zm-2.616 0l5.272 8.4c.192.24.24.552.144.84-.096.288-.312.504-.6.6l-6.24 2.256c-.264.096-.552.072-.792-.072-.24-.144-.384-.384-.408-.672l-.888-11.016c.48-.144.984-.264 1.512-.336z"/>
</svg>