<svg xmlns="http://www.w3.org/2000/svg" viewBox="0 0 24 24" fill="#FF3E00">
  <path d="M20.68 4.32c-2.827-3.773-8.506-4.64-12.68-1.936L4.89 4.15C1.64 6.32-.32 10.187.04 14.187c.24 2.667 1.44 5.12 3.36 6.88 2.827 3.773 8.506 4.64 12.68 1.936l3.11-1.766c3.25-2.17 5.21-6.037 4.85-10.037-.24-2.667-1.44-5.12-3.36-6.88zm-8.68 15.68c-2.4 0-4.64-1.28-5.84-3.36-.8-1.387-.96-3.04-.44-4.587.52-1.547 1.68-2.827 3.2-3.52l.32-.147c.213-.093.453.04.533.267.08.227-.027.48-.24.573l-.32.147c-1.067.48-1.867 1.387-2.24 2.507-.373 1.12-.267 2.347.293 3.36.84 1.453 2.4 2.347 4.08 2.347 1.68 0 3.24-.894 4.08-2.347.56-1.013.666-2.24.293-3.36-.373-1.12-1.173-2.027-2.24-2.507l-.32-.147c-.213-.093-.32-.346-.24-.573.08-.227.32-.36.533-.267l.32.147c1.52.693 2.68 1.973 3.2 3.52.52 1.547.36 3.2-.44 4.587-1.2 2.08-3.44 3.36-5.84 3.36z"/>
</svg>