<svg xmlns="http://www.w3.org/2000/svg" viewBox="0 0 24 24" fill="#646CFF">
  <path d="m8.286 10.578.512-8.657a.306.306 0 0 1 .247-.282L17.377.006a.306.306 0 0 1 .353.385l-1.558 5.403a.306.306 0 0 0 .352.385l2.388-.46a.306.306 0 0 1 .332.438l-6.79 13.55-.123.19a.294.294 0 0 1-.252.14c-.177 0-.35-.152-.305-.369l1.095-5.301a.306.306 0 0 0-.388-.355L8.69 14.7a.306.306 0 0 1-.38-.34l-.024-3.782z"/>
  <path d="m7.649 10.678-2.334-1.155A.306.306 0 0 1 5.1 9.173l-.457-3.571a.306.306 0 0 1 .297-.357L12.35.006a.306.306 0 0 1 .26.45l-5.145 9.465a.294.294 0 0 1-.259.152c-.177 0-.35-.152-.305-.369z"/>
</svg>