<svg xmlns="http://www.w3.org/2000/svg" viewBox="0 0 24 24" fill="#96588A">
  <path d="M23.527 8.257c-.134-1.045-.494-1.96-1.039-2.647-.545-.686-1.287-1.154-2.142-1.351-.855-.197-1.823-.123-2.794.213-.971.336-1.945.896-2.812 1.617-.867.721-1.627 1.603-2.196 2.548-.569.945-.947 1.953-1.092 2.913-.145.96-.058 1.872.251 2.634.309.762.825 1.375 1.491 1.771.666.396 1.482.575 2.357.517.875-.058 1.809-.334 2.698-.798.889-.464 1.733-1.116 2.438-1.883.705-.767 1.271-1.649 1.635-2.548.364-.899.526-1.815.405-2.646zm-11.054 7.743c-.134-1.045-.494-1.96-1.039-2.647-.545-.686-1.287-1.154-2.142-1.351-.855-.197-1.823-.123-2.794.213-.971.336-1.945.896-2.812 1.617-.867.721-1.627 1.603-2.196 2.548-.569.945-.947 1.953-1.092 2.913-.145.96-.058 1.872.251 2.634.309.762.825 1.375 1.491 1.771.666.396 1.482.575 2.357.517.875-.058 1.809-.334 2.698-.798.889-.464 1.733-1.116 2.438-1.883.705-.767 1.271-1.649 1.635-2.548.364-.899.526-1.815.405-2.646z"/>
</svg>