<svg xmlns="http://www.w3.org/2000/svg" viewBox="0 0 24 24" fill="#21759B">
  <path d="M21.469 6.825c.84 1.537 1.318 3.3 1.318 5.175 0 3.979-2.156 7.456-5.363 9.325l3.295-9.527c.615-1.54.82-2.771.82-3.864 0-.405-.026-.78-.07-1.11m-7.981.105c.647-.03 1.232-.105 1.232-.105.582-.075.514-.93-.067-.899 0 0-1.755.135-2.88.135-1.064 0-2.85-.135-2.85-.135-.584-.031-.661.854-.082.899 0 0 .537.075 1.104.105l1.644 4.467L9.281 18.675l-2.926-8.271c.647-.03 1.231-.105 1.231-.105.583-.075.515-.93-.066-.899 0 0-1.756.135-2.88.135-.202 0-.438-.008-.69-.015C4.911 7.15 8.235 5.14 12.001 5.14c2.8 0 5.347 1.073 7.24 2.826-.046-.003-.091-.009-.141-.009-.429 0-.734.375-.734.779 0 .363.21.671.432.978.168.307.336.704.336 1.275 0 .496-.19 1.108-.44 1.938l-.577 1.929-2.094-6.204zm-9.329 1.378L1.866 18.675c-1.29-2.04-2.04-4.46-2.04-7.05 0-2.422.78-4.66 2.094-6.468.015.375.045.765.045 1.201zm7.591.105l2.75 8.201c.015.045.045.075.06.12-1.35.465-2.79.72-4.29.72-1.245 0-2.43-.225-3.54-.615l2.97-8.426h2.05z"/>
</svg>